<!--?xml version="1.0" standalone="no"?-->
<svg id="sw-js-blob-svg" viewBox="0 0 100 100" xmlns="http://www.w3.org/2000/svg" version="1.1">
    <defs>
        <linearGradient id="sw-gradient" x1="0" x2="1" y1="1" y2="0">
            <stop id="stop1" stop-color="rgba(170.555, 158.488, 219.027, 1)" offset="0%"></stop>
            <stop id="stop2" stop-color="rgba(68.106, 0, 255, 1)" offset="100%"></stop>
        </linearGradient>
    </defs>
    <path fill="url(#sw-gradient)"
        d="M21.9,-24.4C30,-19.4,39.1,-13.9,41.5,-6.4C44,1.2,39.8,10.9,34,18.4C28.2,25.9,20.7,31.3,12.4,34.5C4,37.7,-5.2,38.8,-12,35.3C-18.9,31.9,-23.2,23.9,-26.5,16.2C-29.8,8.6,-32,1.3,-31.5,-6.2C-31,-13.7,-27.7,-21.4,-21.9,-26.8C-16.2,-32.2,-8.1,-35.5,-0.6,-34.8C7,-34.1,13.9,-29.5,21.9,-24.4Z"
        width="100%" height="100%" transform="translate(50 50)" stroke-width="0"
        style="transition: all 0.3s ease 0s;"></path>
</svg>